<!-- @format -->
<svg
  version="1.1"
  id="Layer_1"
  x="0px"
  y="0px"
  viewBox="0 0 4000 4000"
  style="enable-background: new 0 0 4000 4000"
  xml:space="preserve"
  sodipodi:docname="logo.svg"
  inkscape:version="1.3 (0e150ed6c4, 2023-07-21)"
  xmlns:inkscape="http://www.inkscape.org/namespaces/inkscape"
  xmlns:sodipodi="http://sodipodi.sourceforge.net/DTD/sodipodi-0.dtd"
  xmlns:xlink="http://www.w3.org/1999/xlink"
  xmlns="http://www.w3.org/2000/svg"
  xmlns:svg="http://www.w3.org/2000/svg"
>
  <defs id="defs17">
    &#10; &#10; &#10; &#10;
    <defs id="defs4">
      &#10;
      <filter
        id="Adobe_OpacityMaskFilter"
        filterUnits="userSpaceOnUse"
        x="1330.51"
        y="1261.362"
        width="1169.021"
        height="1419.939"
      >
        &#10;
        <feColorMatrix
          type="matrix"
          values="1 0 0 0 0  0 1 0 0 0  0 0 1 0 0  0 0 0 1 0"
          id="feColorMatrix4"
        />
        &#10;
      </filter>
      &#10;
    </defs>
    &#10; &#10;
    <mask
      maskUnits="userSpaceOnUse"
      x="1330.51"
      y="1261.362"
      width="1169.021"
      height="1419.939"
      id="SVGID_00000178902063540654043350000017355064357777604226_"
    >
      &#10;
      <g style="filter: url(#Adobe_OpacityMaskFilter)" id="g6">
        &#10; &#10;
        <linearGradient
          id="SVGID_00000172410326657665050540000004878587908826955397_"
          gradientUnits="userSpaceOnUse"
          x1="-2574.77"
          y1="4420.3101"
          x2="-3533.7161"
          y2="5653.6353"
          gradientTransform="matrix(1 0 0 1 5170.8711 -3324.9341)"
        >
          &#10;
          <stop offset="0" style="stop-color: #ffffff" id="stop5" />
          &#10;
          <stop offset="1" style="stop-color: #000000" id="stop6" />
          &#10;
        </linearGradient>
        &#10; &#10;
        <rect
          x="1330.508"
          y="1261.362"
          style="
            fill: url(#SVGID_00000172410326657665050540000004878587908826955397_);
          "
          width="1169.023"
          height="1419.94"
          id="rect6"
        />
        &#10;
      </g>
      &#10;
    </mask>
    &#10; &#10; &#10;
    <defs id="defs6">
      &#10; &#10;
      <filter
        id="Adobe_OpacityMaskFilter_00000112617731971667345240000012950883979223607483_"
        filterUnits="userSpaceOnUse"
        x="1330.51"
        y="1261.362"
        width="1169.021"
        height="1419.94"
      >
        &#10;
        <feColorMatrix
          type="matrix"
          values="1 0 0 0 0  0 1 0 0 0  0 0 1 0 0  0 0 0 1 0"
          id="feColorMatrix6"
        />
        &#10;
      </filter>
      &#10;
    </defs>
    &#10; &#10;
    <mask
      maskUnits="userSpaceOnUse"
      x="1330.51"
      y="1261.362"
      width="1169.021"
      height="1419.94"
      id="SVGID_00000090276094883510795570000010754829572292807065_"
    >
      &#10;
      <g
        style="
          filter: url(#Adobe_OpacityMaskFilter_00000112617731971667345240000012950883979223607483_);
        "
        id="g8"
      >
        &#10; &#10;
        <linearGradient
          id="SVGID_00000013160406775676627400000011051021696775104424_"
          gradientUnits="userSpaceOnUse"
          x1="-3352.5754"
          y1="5974.8403"
          x2="-3223.0637"
          y2="5066.2412"
          gradientTransform="matrix(1 0 0 1 5170.8711 -3324.9341)"
        >
          &#10;
          <stop offset="0" style="stop-color: #ffffff" id="stop7" />
          &#10;
          <stop offset="1" style="stop-color: #000000" id="stop8" />
          &#10;
        </linearGradient>
        &#10; &#10;
        <rect
          x="1330.508"
          y="1261.362"
          style="
            fill: url(#SVGID_00000013160406775676627400000011051021696775104424_);
          "
          width="1169.023"
          height="1419.94"
          id="rect8"
        />
        &#10;
      </g>
      &#10;
    </mask>
    &#10; &#10; &#10;
    <defs id="defs8">
      &#10; &#10;
      <filter
        id="Adobe_OpacityMaskFilter_00000098905975317316642650000003954639455824964012_"
        filterUnits="userSpaceOnUse"
        x="1844.865"
        y="1696.661"
        width="777.833"
        height="911.392"
      >
        &#10;
        <feColorMatrix
          type="matrix"
          values="1 0 0 0 0  0 1 0 0 0  0 0 1 0 0  0 0 0 1 0"
          id="feColorMatrix8"
        />
        &#10;
      </filter>
      &#10;
    </defs>
    &#10; &#10;
    <mask
      maskUnits="userSpaceOnUse"
      x="1844.865"
      y="1696.661"
      width="777.833"
      height="911.392"
      id="SVGID_00000152967681954728559070000003100793507074495650_"
    >
      &#10;
      <g
        style="
          filter: url(#Adobe_OpacityMaskFilter_00000098905975317316642650000003954639455824964012_);
        "
        id="g10"
      >
        &#10; &#10;
        <linearGradient
          id="SVGID_00000160889530837864582400000008114701370953032853_"
          gradientUnits="userSpaceOnUse"
          x1="-3553.7397"
          y1="5215.4385"
          x2="-3000.7029"
          y2="5570.4287"
          gradientTransform="matrix(1 0 0 1 5341.6855 -3349.2598)"
        >
          &#10;
          <stop offset="0" style="stop-color: #ffffff" id="stop9" />
          &#10;
          <stop offset="1" style="stop-color: #000000" id="stop10" />
          &#10;
        </linearGradient>
        &#10; &#10;
        <rect
          x="1844.865"
          y="1696.661"
          style="
            fill: url(#SVGID_00000160889530837864582400000008114701370953032853_);
          "
          width="777.833"
          height="911.391"
          id="rect10"
        />
        &#10;
      </g>
      &#10;
    </mask>
    &#10; &#10; &#10;
    <defs id="defs10">
      &#10; &#10;
      <filter
        id="Adobe_OpacityMaskFilter_00000067921189843284135940000005505122166272658842_"
        filterUnits="userSpaceOnUse"
        x="2110.813"
        y="1810.994"
        width="558.678"
        height="794.019"
      >
        &#10;
        <feColorMatrix
          type="matrix"
          values="1 0 0 0 0  0 1 0 0 0  0 0 1 0 0  0 0 0 1 0"
          id="feColorMatrix10"
        />
        &#10;
      </filter>
      &#10;
    </defs>
    &#10; &#10;
    <mask
      maskUnits="userSpaceOnUse"
      x="2110.813"
      y="1810.994"
      width="558.678"
      height="794.019"
      id="SVGID_00000155826931079086847340000007775269929635444897_"
    >
      &#10;
      <g
        style="
          filter: url(#Adobe_OpacityMaskFilter_00000067921189843284135940000005505122166272658842_);
        "
        id="g12"
      >
        &#10; &#10;
        <linearGradient
          id="SVGID_00000114788698714196991810000004633727315400037536_"
          gradientUnits="userSpaceOnUse"
          x1="-3137.8086"
          y1="6317.98"
          x2="-3030.6104"
          y2="5486.5889"
          gradientTransform="matrix(1 0 0 1 5430.0054 -3350.269)"
        >
          &#10;
          <stop offset="0" style="stop-color: #ffffff" id="stop11" />
          &#10;
          <stop offset="1" style="stop-color: #000000" id="stop12" />
          &#10;
        </linearGradient>
        &#10; &#10;
        <rect
          x="2110.813"
          y="1810.994"
          style="
            fill: url(#SVGID_00000114788698714196991810000004633727315400037536_);
          "
          width="558.679"
          height="794.019"
          id="rect12"
        />
        &#10;
      </g>
      &#10;
    </mask>
    &#10; &#10; &#10; &#10; &#10; &#10; &#10;
  </defs>
  <sodipodi:namedview
    id="namedview17"
    pagecolor="#ffffff"
    bordercolor="#000000"
    borderopacity="0.25"
    inkscape:showpageshadow="2"
    inkscape:pageopacity="0.0"
    inkscape:pagecheckerboard="0"
    inkscape:deskcolor="#d1d1d1"
    inkscape:zoom="0.20325"
    inkscape:cx="2000"
    inkscape:cy="2000"
    inkscape:window-width="1920"
    inkscape:window-height="1046"
    inkscape:window-x="-11"
    inkscape:window-y="-11"
    inkscape:window-maximized="1"
    inkscape:current-layer="Layer_1"
  />&#10;
  <g id="g17">
    <g id="g2">
      &#10;
      <defs id="defs1">
        &#10;
        <path
          id="SVGID_1_"
          d="m 1916.942,2403.194 c -96.91,-149.661 -96.03,-342.495 2.241,-491.264 98.067,110.713 252.788,152.136 393.054,105.231 140.266,-46.904 238.946,-173.066 250.688,-320.499 11.742,-147.436 -65.726,-287.625 -196.8,-356.14 -298.689,-154.214 -664.593,-77.806 -876.606,183.054 -212.013,260.859 -212.013,634.655 0,895.514 212.013,260.86 577.916,337.267 876.606,183.054 -175.955,28.802 -352.272,-49.291 -449.183,-198.95"
        />
        &#10;
      </defs>
      &#10;
      <clipPath id="SVGID_00000009554461780623575350000001386465457466160770_">
        &#10;
        <use xlink:href="#SVGID_1_" style="overflow: visible" id="use1" />
        &#10;
      </clipPath>
      &#10; &#10;
      <linearGradient
        id="SVGID_00000173844671207089249940000016226557882800211358_"
        gradientUnits="userSpaceOnUse"
        x1="1413.5651"
        y1="2280.3604"
        x2="2425.5078"
        y2="1670.2017"
      >
        &#10;
        <stop offset="0" style="stop-color: #007b70" id="stop1" />
        &#10;
        <stop offset="1" style="stop-color: #aff022" id="stop2" />
        &#10;
      </linearGradient>
      &#10; &#10;
      <rect
        x="1277.507"
        y="1186.307"
        style="
          fill: url(#SVGID_00000173844671207089249940000016226557882800211358_);
        "
        width="1297.16"
        height="1570.048"
        clip-path="url(#SVGID_00000009554461780623575350000001386465457466160770_)"
        id="rect2"
      />
      &#10;
    </g>
    <g id="g4">
      &#10;
      <defs id="defs2">
        &#10;
        <path
          id="SVGID_00000179647498889955810190000008148926582641180335_"
          d="m 1919.183,1911.929 c -98.271,148.769 -99.151,341.603 -2.241,491.264 96.911,149.659 273.228,227.752 449.183,198.949 147.543,-92.811 251.541,-241.081 288.56,-411.412 37.021,-170.329 3.949,-348.392 -91.761,-494.07 -11.742,147.433 -110.422,273.595 -250.688,320.499 -140.265,46.906 -294.986,5.483 -393.053,-105.23"
        />
        &#10;
      </defs>
      &#10;
      <clipPath id="SVGID_00000046325422929383968120000012874474453822760582_">
        &#10;
        <use
          xlink:href="#SVGID_00000179647498889955810190000008148926582641180335_"
          style="overflow: visible"
          id="use2"
        />
        &#10;
      </clipPath>
      &#10; &#10;
      <linearGradient
        id="SVGID_00000080905470766430966490000001670327346665586858_"
        gradientUnits="userSpaceOnUse"
        x1="2359.5117"
        y1="2563.9097"
        x2="2176.2793"
        y2="1856.5491"
      >
        &#10;
        <stop offset="0" style="stop-color: #ffce4b" id="stop3" />
        &#10;
        <stop offset="1" style="stop-color: #c31656" id="stop4" />
        &#10;
      </linearGradient>
      &#10; &#10;
      <rect
        x="1820.032"
        y="1696.661"
        style="
          fill: url(#SVGID_00000080905470766430966490000001670327346665586858_);
        "
        width="871.67401"
        height="934.284"
        clip-path="url(#SVGID_00000046325422929383968120000012874474453822760582_)"
        id="rect4"
      />
      &#10;
    </g>
    <path
      style="clip-rule: evenodd; fill: #fff000; fill-rule: evenodd"
      d="m 1676.111,2223.086 c -63.781,-227.879 5.155,-472.293 178.606,-633.261 173.451,-160.97 422.325,-211.493 644.814,-130.902 -33.43,-48.812 -78.76,-89.836 -133.406,-118.401 -298.689,-154.214 -664.593,-77.806 -876.606,183.054 -212.013,260.859 -212.013,634.655 0,895.514 164.462,202.352 421.522,293.714 667.979,252.535 -231.81,-47.543 -417.606,-220.66 -481.387,-448.539"
      mask="url(#SVGID_00000178902063540654043350000017355064357777604226_)"
      id="path6"
    />
    <path
      style="clip-rule: evenodd; fill: #005b50; fill-rule: evenodd"
      d="m 1503.914,2199.003 c -72.605,-270.169 35.708,-556.497 268.948,-710.969 182.376,-120.785 409.172,-139.786 604.792,-59.971 41.083,6.134 81.907,16.381 121.877,30.86 -33.43,-48.812 -78.76,-89.836 -133.406,-118.401 -298.689,-154.214 -664.593,-77.806 -876.606,183.054 -212.013,260.859 -212.013,634.655 0,895.514 150.158,184.754 377.511,276.984 603.507,260.285 -279.253,-16.744 -516.505,-210.204 -589.112,-480.372"
      mask="url(#SVGID_00000090276094883510795570000010754829572292807065_)"
      id="path8"
    />
    <path
      style="clip-rule: evenodd; fill: #860000; fill-rule: evenodd"
      d="m 2312.237,2017.16 c -140.266,46.905 -294.987,5.482 -393.054,-105.231 -98.271,148.769 -99.151,341.603 -2.241,491.264 96.911,149.659 273.228,227.752 449.183,198.949 -137.192,16.751 -272.955,-40.64 -356.533,-150.718 -83.578,-110.077 -102.385,-256.267 -49.392,-383.915 122.101,65.45 266.921,73.455 395.492,21.864 125.037,-50.174 222.216,-151.703 267.006,-278.379 -15.957,-39.709 -35.92,-78.026 -59.773,-114.333 -11.742,147.433 -110.422,273.595 -250.688,320.499"
      mask="url(#SVGID_00000152967681954728559070000003100793507074495650_)"
      id="path10"
    />
    <path
      style="clip-rule: evenodd; fill: #fff000; fill-rule: evenodd"
      d="m 2468.162,2329.765 c -79.931,123.666 -212.281,202.373 -357.349,214.741 74.736,47.428 164.712,68.699 255.312,57.637 147.543,-92.811 251.541,-241.081 288.56,-411.412 27.793,-127.879 16.081,-260.118 -31.988,-379.737 -20.321,57.472 -51.426,109.767 -91.023,154.44 28.794,123.708 6.895,255.4 -63.512,364.331"
      mask="url(#SVGID_00000155826931079086847340000007775269929635444897_)"
      id="path12"
    />
    <g id="g14">
      &#10;
      <defs id="defs12">
        &#10;
        <path
          id="SVGID_00000152968292300628947210000015190324205681237140_"
          d="m 1595.272,940.199 c 8.342,94.662 57.054,181.143 133.682,237.34 76.634,56.195 173.757,76.658 266.548,56.161 3.233,-205.737 -130.177,-303.572 -400.23,-293.501"
        />
        &#10;
      </defs>
      &#10;
      <clipPath id="SVGID_00000033339557789869675930000009486302579381312919_">
        &#10;
        <use
          xlink:href="#SVGID_00000152968292300628947210000015190324205681237140_"
          style="overflow: visible"
          id="use12"
        />
        &#10;
      </clipPath>
      &#10; &#10;
      <linearGradient
        id="SVGID_00000114786059342013288180000013748567651729651111_"
        gradientUnits="userSpaceOnUse"
        x1="1670.4307"
        y1="1208.614"
        x2="1912.9216"
        y2="985.51489"
      >
        &#10;
        <stop offset="0" style="stop-color: #007b70" id="stop13" />
        &#10;
        <stop offset="1" style="stop-color: #aff022" id="stop14" />
        &#10;
      </linearGradient>
      &#10; &#10;
      <rect
        x="1595.272"
        y="930.12799"
        style="
          fill: url(#SVGID_00000114786059342013288180000013748567651729651111_);
        "
        width="403.46399"
        height="324.069"
        clip-path="url(#SVGID_00000033339557789869675930000009486302579381312919_)"
        id="rect14"
      />
      &#10;
    </g>
    <g id="g16">
      &#10;
      <defs id="defs14">
        &#10;
        <path
          id="SVGID_00000063621238097364508170000006219482583124375681_"
          d="m 2221.191,1085.189 c -4.171,47.332 -28.527,90.571 -66.842,118.669 -38.316,28.099 -86.879,38.33 -133.273,28.081 -1.618,-102.868 65.087,-151.786 200.115,-146.75"
        />
        &#10;
      </defs>
      &#10;
      <clipPath id="SVGID_00000139252401530866945340000000858623454417271212_">
        &#10;
        <use
          xlink:href="#SVGID_00000063621238097364508170000006219482583124375681_"
          style="overflow: visible"
          id="use14"
        />
        &#10;
      </clipPath>
      &#10; &#10;
      <linearGradient
        id="SVGID_00000133505916060093559470000011986237159636873866_"
        gradientUnits="userSpaceOnUse"
        x1="2183.6147"
        y1="1219.3843"
        x2="2062.354"
        y2="1107.8495"
      >
        &#10;
        <stop offset="0" style="stop-color: #007b70" id="stop15" />
        &#10;
        <stop offset="1" style="stop-color: #aff022" id="stop16" />
        &#10;
      </linearGradient>
      &#10; &#10;
      <rect
        x="2019.458"
        y="1080.153"
        style="
          fill: url(#SVGID_00000133505916060093559470000011986237159636873866_);
        "
        width="201.733"
        height="162.034"
        clip-path="url(#SVGID_00000139252401530866945340000000858623454417271212_)"
        id="rect16"
      />
      &#10;
    </g>
    <path
      style="fill: #303030"
      d="m 2981.531,3008.144 v -105.37 c 0,-19.523 -4.832,-34.319 -14.491,-44.381 -9.659,-10.062 -23.047,-15.094 -40.157,-15.094 -11.067,0 -20.931,2.164 -29.585,6.54 -8.654,4.379 -16.507,10.769 -23.55,19.324 -4.226,-8.352 -10.216,-14.696 -17.964,-19.171 -7.75,-4.478 -16.956,-6.692 -27.626,-6.692 -5.837,0 -11.118,0.702 -15.851,2.111 -4.727,1.462 -9.007,3.373 -12.83,5.787 -3.826,2.468 -7.296,5.235 -10.416,8.356 -3.12,3.17 -5.987,6.44 -8.604,9.914 v -23.151 h -45.893 v 161.829 h 45.893 v -90.072 c 0,-10.819 2.464,-19.021 7.396,-24.504 4.931,-5.535 11.724,-8.302 20.378,-8.302 8.656,0 15.299,2.767 19.927,8.302 4.629,5.483 6.943,13.685 6.943,24.504 v 90.072 h 45.894 v -90.072 c 0,-10.819 2.463,-19.021 7.394,-24.504 4.933,-5.535 11.726,-8.302 20.38,-8.302 8.654,0 15.299,2.767 19.926,8.302 4.628,5.483 6.947,13.685 6.947,24.504 v 90.072 h 45.889 z m -288.031,0 v -161.829 h -45.888 v 90.072 c 0,10.819 -2.569,19.021 -7.7,24.509 -5.134,5.534 -12.127,8.301 -20.986,8.301 -8.854,0 -15.697,-2.767 -20.528,-8.301 -4.832,-5.488 -7.246,-13.69 -7.246,-24.509 v -90.072 h -45.89 v 104.767 c 0,18.718 4.778,33.413 14.338,44.078 9.56,10.67 23.096,16.005 40.608,16.005 5.837,0 11.073,-0.707 15.701,-2.116 4.629,-1.458 8.853,-3.37 12.68,-5.787 3.823,-2.464 7.296,-5.231 10.416,-8.351 3.12,-3.17 5.987,-6.44 8.606,-9.913 v 23.146 z m -179.942,-49.214 v -0.603 c 0,-7.449 -1.508,-13.789 -4.528,-19.021 -3.017,-5.234 -6.843,-9.66 -11.473,-13.283 -4.627,-3.623 -9.863,-6.694 -15.7,-9.211 -5.834,-2.514 -11.572,-4.678 -17.209,-6.49 -4.426,-1.409 -8.606,-2.817 -12.528,-4.226 -3.926,-1.412 -7.399,-2.871 -10.416,-4.379 -3.02,-1.509 -5.434,-3.121 -7.246,-4.832 -1.812,-1.711 -2.717,-3.673 -2.717,-5.887 v -0.603 c 0,-3.22 1.409,-5.888 4.226,-8.002 2.817,-2.111 7.046,-3.17 12.68,-3.17 5.837,0 12.58,1.359 20.23,4.076 7.648,2.717 15.497,6.39 23.55,11.022 l 17.508,-31.701 c -8.854,-5.838 -18.569,-10.419 -29.134,-13.74 -10.566,-3.319 -20.981,-4.981 -31.247,-4.981 -8.253,0 -15.951,1.109 -23.097,3.32 -7.147,2.215 -13.387,5.538 -18.719,9.963 -5.334,4.429 -9.56,9.814 -12.68,16.154 -3.12,6.341 -4.682,13.635 -4.682,21.891 v 0.603 c 0,7.849 1.461,14.492 4.379,19.926 2.917,5.434 6.693,10.013 11.321,13.737 4.629,3.723 9.813,6.744 15.547,9.057 5.739,2.314 11.426,4.279 17.06,5.887 4.429,1.408 8.654,2.718 12.68,3.926 4.026,1.209 7.599,2.464 10.72,3.773 3.12,1.309 5.584,2.871 7.396,4.681 1.812,1.811 2.717,3.923 2.717,6.341 v 0.602 c 0,3.623 -1.558,6.541 -4.678,8.755 -3.12,2.214 -8.001,3.324 -14.646,3.324 -7.646,0 -15.85,-1.613 -24.604,-4.832 -8.754,-3.22 -17.563,-8.052 -26.417,-14.492 l -19.627,30.193 c 10.87,8.451 22.294,14.642 34.269,18.567 11.979,3.924 23.7,5.889 35.174,5.889 8.656,0 16.757,-1.059 24.303,-3.171 7.549,-2.115 14.141,-5.285 19.776,-9.51 5.639,-4.23 10.013,-9.615 13.133,-16.155 3.12,-6.539 4.679,-14.341 4.679,-23.398 z m -198.359,-31.398 c 0,6.893 -1.056,13.083 -3.17,18.517 -2.111,5.485 -4.983,10.213 -8.604,14.14 -3.625,3.975 -7.8,6.997 -12.527,9.156 -4.733,2.115 -9.814,3.171 -15.249,3.171 -5.435,0 -10.516,-1.056 -15.249,-3.171 -4.727,-2.16 -8.854,-5.181 -12.377,-9.156 -3.523,-3.927 -6.34,-8.705 -8.454,-14.293 -2.111,-5.534 -3.17,-11.671 -3.17,-18.364 v -0.603 c 0,-6.694 1.059,-12.834 3.17,-18.368 2.114,-5.585 4.931,-10.366 8.454,-14.292 3.523,-3.973 7.65,-6.993 12.377,-9.158 4.733,-2.111 9.814,-3.17 15.249,-3.17 5.435,0 10.516,1.06 15.249,3.17 4.727,2.164 8.903,5.185 12.527,9.158 3.621,3.926 6.493,8.707 8.604,14.292 2.114,5.533 3.17,11.674 3.17,18.368 z m 45.893,0 v -0.603 c 0,-13.486 -2.064,-25.414 -6.19,-35.777 -4.126,-10.366 -9.61,-19.124 -16.453,-26.266 -6.843,-7.147 -14.696,-12.531 -23.55,-16.154 -8.857,-3.624 -18.014,-5.434 -27.476,-5.434 -12.077,0 -22.09,2.464 -30.038,7.346 -7.953,4.881 -14.746,11.121 -20.38,18.718 v -23.047 h -45.893 v 210.136 h 45.893 v -69.239 c 5.434,6.391 12.129,11.974 20.076,16.756 7.953,4.778 18.066,7.197 30.343,7.197 9.66,0 18.921,-1.812 27.776,-5.435 8.857,-3.624 16.656,-9.008 23.398,-16.154 6.744,-7.146 12.179,-15.901 16.304,-26.267 4.126,-10.366 6.19,-22.29 6.19,-35.777 z m -217.985,80.612 v -211.342 h -46.491 v 211.342 z m -183.866,0 v -105.37 c 0,-19.523 -4.831,-34.319 -14.491,-44.381 -9.66,-10.063 -23.047,-15.094 -40.157,-15.094 -11.068,0 -20.931,2.164 -29.586,6.54 -8.654,4.379 -16.507,10.769 -23.55,19.324 -4.226,-8.352 -10.216,-14.696 -17.964,-19.171 -7.748,-4.478 -16.957,-6.692 -27.626,-6.692 -5.837,0 -11.119,0.702 -15.85,2.111 -4.729,1.462 -9.009,3.373 -12.83,5.787 -3.827,2.468 -7.297,5.235 -10.417,8.356 -3.12,3.17 -5.987,6.44 -8.604,9.914 v -23.151 h -45.893 v 161.829 h 45.893 v -90.072 c 0,-10.819 2.464,-19.021 7.396,-24.504 4.931,-5.535 11.726,-8.302 20.38,-8.302 8.654,0 15.297,2.767 19.926,8.302 4.629,5.483 6.943,13.685 6.943,24.504 v 90.072 h 45.894 v -90.072 c 0,-10.819 2.463,-19.021 7.396,-24.504 4.931,-5.535 11.724,-8.302 20.379,-8.302 8.655,0 15.299,2.767 19.927,8.302 4.627,5.483 6.946,13.685 6.946,24.504 v 90.072 h 45.888 z m -325.768,-93.595 h -69.14 c 1.811,-10.466 5.687,-18.818 11.626,-25.059 5.936,-6.239 13.736,-9.36 23.399,-9.36 9.66,0 17.409,3.17 23.247,9.511 5.836,6.34 9.46,14.645 10.868,24.908 z m 44.685,17.208 v -0.603 c 0,-11.471 -1.561,-22.493 -4.678,-33.059 -3.12,-10.566 -7.953,-19.927 -14.493,-28.078 -6.543,-8.152 -14.744,-14.645 -24.609,-19.474 -9.863,-4.832 -21.534,-7.246 -35.02,-7.246 -11.874,0 -22.693,2.214 -32.457,6.64 -9.76,4.428 -18.166,10.469 -25.211,18.118 -7.043,7.645 -12.527,16.604 -16.453,26.869 -3.926,10.267 -5.887,21.135 -5.887,32.607 v 0.603 c 0,12.481 2.114,23.802 6.34,33.965 4.226,10.167 10.113,18.971 17.661,26.421 7.55,7.445 16.507,13.182 26.87,17.208 10.366,4.026 21.587,6.037 33.666,6.037 14.691,0 27.473,-2.667 38.341,-8.002 10.869,-5.331 20.129,-12.73 27.779,-22.191 l -26.267,-23.246 c -6.44,5.837 -12.68,10.063 -18.722,12.681 -6.037,2.617 -12.88,3.927 -20.528,3.927 -10.266,0 -18.872,-2.667 -25.814,-8.002 -6.943,-5.335 -11.521,-13.233 -13.736,-23.699 h 112.616 c 0.2,-2.214 0.35,-4.13 0.453,-5.738 0.099,-1.611 0.149,-3.523 0.149,-5.738 z m -179.642,-40.455 v -48.004 c -13.686,-0.606 -24.554,2.414 -32.607,9.057 -8.052,6.643 -14.391,15.497 -19.02,26.57 v -32.611 h -45.893 v 161.829 h 45.893 v -59.779 c 0,-19.523 4.376,-33.916 13.133,-43.173 8.754,-9.261 20.783,-13.889 36.077,-13.889 z m -176.016,36.833 c 0,6.041 -0.956,11.724 -2.872,17.059 -1.91,5.335 -4.679,10.014 -8.3,14.039 -3.624,4.026 -8.003,7.196 -13.134,9.51 -5.131,2.314 -11.018,3.473 -17.661,3.473 -6.44,0 -12.229,-1.208 -17.36,-3.623 -5.134,-2.418 -9.61,-5.688 -13.436,-9.813 -3.823,-4.126 -6.743,-8.858 -8.754,-14.188 -2.016,-5.334 -3.02,-11.022 -3.02,-17.059 v -0.603 c 0,-6.041 0.956,-11.724 2.866,-17.059 1.916,-5.335 4.683,-10.013 8.306,-14.039 3.623,-4.026 7.998,-7.196 13.133,-9.51 5.131,-2.314 11.018,-3.473 17.663,-3.473 6.24,0 11.974,1.209 17.208,3.623 5.231,2.418 9.76,5.688 13.587,9.813 3.823,4.126 6.743,8.854 8.754,14.189 2.014,5.334 3.02,11.022 3.02,17.059 z m 45.287,-0.603 v -0.603 c 0,-11.675 -2.214,-22.594 -6.643,-32.76 -4.429,-10.163 -10.516,-19.021 -18.264,-26.566 -7.75,-7.549 -16.96,-13.486 -27.626,-17.816 -10.669,-4.325 -22.241,-6.489 -34.721,-6.489 -12.681,0 -24.356,2.214 -35.021,6.64 -10.668,4.428 -19.927,10.469 -27.779,18.118 -7.849,7.645 -13.989,16.553 -18.414,26.719 -4.429,10.163 -6.643,21.082 -6.643,32.757 v 0.603 c 0,11.675 2.214,22.594 6.643,32.76 4.426,10.162 10.516,19.021 18.264,26.566 7.748,7.549 16.96,13.486 27.626,17.814 10.669,4.326 22.24,6.491 34.721,6.491 12.68,0 24.356,-2.215 35.02,-6.643 10.67,-4.427 19.927,-10.467 27.779,-18.116 7.85,-7.649 13.987,-16.553 18.416,-26.719 4.427,-10.162 6.642,-21.081 6.642,-32.756 z m -197.453,80.612 v -41.968 h -105.368 v -169.374 h -46.497 v 211.342 z"
      id="path16"
    />
    <path
      style="fill: #303030"
      d="m 2599.246,3174.24 v -60.463 h -13.125 v 37.228 l -28.336,-37.228 h -12.262 v 60.463 h 13.13 v -38.437 l 29.28,38.437 z m -113.154,-25.307 h -16.065 l 8.034,-19.609 z m 24.189,25.307 -25.914,-60.894 H 2472.1 l -25.913,60.894 h 13.561 l 5.531,-13.561 h 25.567 l 5.527,13.561 z m -97.607,-8.55 v -26.26 h -26.26 v 11.49 h 13.387 v 8.693 c -3.395,2.436 -7.571,3.659 -12.524,3.659 -2.707,0 -5.167,-0.477 -7.385,-1.427 -2.217,-0.948 -4.146,-2.303 -5.787,-4.029 -1.639,-1.73 -2.91,-3.759 -3.801,-6.105 -0.891,-2.332 -1.338,-4.896 -1.338,-7.659 v -0.171 c 0,-2.593 0.447,-5.039 1.338,-7.314 0.891,-2.289 2.132,-4.275 3.716,-5.977 1.583,-1.698 3.427,-3.066 5.527,-4.072 2.1,-1.009 4.361,-1.511 6.782,-1.511 1.725,0 3.308,0.143 4.749,0.431 1.441,0.29 2.779,0.693 4.015,1.209 1.238,0.517 2.432,1.152 3.585,1.9 1.151,0.749 2.304,1.612 3.455,2.592 l 8.379,-10.105 c -1.554,-1.326 -3.166,-2.507 -4.839,-3.545 -1.669,-1.034 -3.452,-1.896 -5.352,-2.588 -1.901,-0.692 -3.963,-1.223 -6.177,-1.597 -2.219,-0.374 -4.679,-0.563 -7.385,-0.563 -4.606,0 -8.84,0.82 -12.698,2.463 -3.858,1.64 -7.199,3.887 -10.02,6.736 -2.82,2.849 -5.024,6.162 -6.608,9.935 -1.583,3.769 -2.376,7.816 -2.376,12.135 v 0.171 c 0,4.493 0.778,8.641 2.333,12.442 1.554,3.797 3.726,7.082 6.522,9.846 2.792,2.763 6.133,4.924 10.02,6.478 3.886,1.556 8.19,2.333 12.911,2.333 5.529,0 10.438,-0.938 14.728,-2.81 4.292,-1.87 7.993,-4.131 11.103,-6.78 z m -106.593,-21.51 c 0,2.592 -0.446,5.024 -1.341,7.3 -0.891,2.275 -2.129,4.275 -3.713,6.004 -1.582,1.726 -3.498,3.081 -5.744,4.058 -2.247,0.981 -4.692,1.47 -7.341,1.47 -2.707,0 -5.167,-0.503 -7.385,-1.512 -2.217,-1.006 -4.146,-2.375 -5.787,-4.1 -1.641,-1.73 -2.91,-3.745 -3.801,-6.049 -0.892,-2.302 -1.338,-4.749 -1.338,-7.341 v -0.172 c 0,-2.592 0.446,-5.024 1.338,-7.3 0.891,-2.274 2.132,-4.276 3.716,-6.005 1.583,-1.726 3.483,-3.081 5.698,-4.058 2.219,-0.981 4.683,-1.469 7.388,-1.469 2.647,0 5.096,0.503 7.343,1.511 2.242,1.006 4.186,2.375 5.83,4.101 1.641,1.731 2.907,3.744 3.798,6.048 0.895,2.304 1.341,4.749 1.341,7.343 v 0.171 z m 13.907,-0.171 v -0.172 c 0,-4.321 -0.791,-8.365 -2.375,-12.138 -1.583,-3.773 -3.802,-7.053 -6.655,-9.845 -2.849,-2.792 -6.232,-5.011 -10.148,-6.651 -3.916,-1.644 -8.206,-2.463 -12.87,-2.463 -4.664,0 -8.967,0.82 -12.912,2.463 -3.948,1.64 -7.343,3.887 -10.195,6.736 -2.849,2.849 -5.081,6.162 -6.693,9.935 -1.613,3.769 -2.419,7.816 -2.419,12.135 v 0.171 c 0,4.321 0.792,8.366 2.375,12.139 1.583,3.769 3.802,7.053 6.652,9.844 2.849,2.793 6.232,5.011 10.148,6.651 3.916,1.645 8.209,2.464 12.873,2.464 4.666,0 8.969,-0.82 12.912,-2.464 3.945,-1.64 7.343,-3.887 10.192,-6.736 2.853,-2.849 5.081,-6.162 6.693,-9.934 1.617,-3.77 2.422,-7.817 2.422,-12.135 z m -97.521,30.231 v -12.006 h -30.146 v -48.458 h -13.301 v 60.463 h 43.447 z m -80.935,-17.879 v -0.175 c 0,-2.647 -0.422,-4.921 -1.256,-6.822 -0.834,-1.9 -2.086,-3.555 -3.727,-4.967 -1.642,-1.412 -3.673,-2.622 -6.062,-3.626 -2.389,-1.009 -5.124,-1.915 -8.191,-2.721 -2.592,-0.692 -4.734,-1.297 -6.45,-1.815 -1.697,-0.518 -3.038,-1.067 -4.03,-1.64 -0.981,-0.578 -1.654,-1.227 -2.028,-1.943 -0.375,-0.721 -0.563,-1.569 -0.563,-2.55 v -0.172 c 0,-1.497 0.648,-2.75 1.942,-3.758 1.298,-1.009 3.242,-1.512 5.83,-1.512 2.594,0 5.186,0.531 7.775,1.597 2.592,1.066 5.242,2.521 7.948,4.361 l 6.91,-10.016 c -3.11,-2.478 -6.522,-4.379 -10.238,-5.702 -3.712,-1.326 -7.788,-1.986 -12.221,-1.986 -3.11,0 -5.962,0.432 -8.535,1.294 -2.579,0.863 -4.811,2.1 -6.669,3.716 -1.854,1.612 -3.295,3.527 -4.332,5.741 -1.021,2.217 -1.541,4.711 -1.541,7.474 v 0.172 c 0,2.995 0.473,5.498 1.426,7.516 0.948,2.015 2.304,3.698 4.029,5.053 1.73,1.352 3.845,2.489 6.322,3.409 2.489,0.923 5.253,1.759 8.319,2.507 2.536,0.635 4.608,1.237 6.191,1.814 1.582,0.575 2.82,1.153 3.729,1.726 0.892,0.578 1.498,1.195 1.813,1.859 0.318,0.663 0.478,1.426 0.478,2.288 v 0.172 c 0,1.786 -0.765,3.18 -2.291,4.189 -1.526,1.01 -3.673,1.513 -6.436,1.513 -3.455,0 -6.635,-0.663 -9.542,-1.987 -2.91,-1.326 -5.745,-3.11 -8.509,-5.356 l -7.862,9.414 c 3.629,3.283 7.659,5.717 12.09,7.3 4.438,1.583 8.959,2.375 13.562,2.375 3.283,0 6.28,-0.417 8.972,-1.252 2.692,-0.834 5.024,-2.042 6.968,-3.626 1.944,-1.584 3.455,-3.545 4.546,-5.877 1.083,-2.331 1.633,-4.992 1.633,-7.987 z m -107.456,17.879 v -11.835 h -32.82 v -12.694 h 28.502 v -11.836 h -28.502 v -12.267 h 32.388 v -11.832 h -45.518 v 60.463 h 45.95 z m -86.378,0 v -60.463 h -14.339 l -15.893,25.567 -15.894,-25.567 h -14.337 v 60.463 h 13.128 v -39.214 l 16.843,25.567 h 0.345 l 17.016,-25.828 v 39.475 z m -112.119,-30.06 c 0,2.592 -0.445,5.024 -1.341,7.3 -0.891,2.275 -2.129,4.275 -3.713,6.004 -1.583,1.726 -3.498,3.081 -5.745,4.058 -2.247,0.981 -4.693,1.47 -7.343,1.47 -2.707,0 -5.167,-0.503 -7.385,-1.512 -2.217,-1.006 -4.148,-2.375 -5.787,-4.1 -1.641,-1.73 -2.91,-3.745 -3.801,-6.049 -0.891,-2.302 -1.338,-4.749 -1.338,-7.341 v -0.172 c 0,-2.592 0.447,-5.024 1.338,-7.3 0.891,-2.274 2.132,-4.276 3.716,-6.005 1.582,-1.726 3.483,-3.081 5.697,-4.058 2.219,-0.981 4.683,-1.469 7.39,-1.469 2.645,0 5.095,0.503 7.341,1.511 2.244,1.006 4.187,2.375 5.831,4.101 1.641,1.731 2.907,3.744 3.798,6.048 0.895,2.304 1.341,4.749 1.341,7.343 v 0.171 z m 13.907,-0.171 v -0.172 c 0,-4.321 -0.791,-8.365 -2.375,-12.138 -1.583,-3.773 -3.801,-7.053 -6.655,-9.845 -2.848,-2.792 -6.233,-5.011 -10.148,-6.651 -3.915,-1.644 -8.206,-2.463 -12.87,-2.463 -4.664,0 -8.969,0.82 -12.912,2.463 -3.948,1.64 -7.343,3.887 -10.195,6.736 -2.848,2.849 -5.081,6.162 -6.693,9.935 -1.612,3.769 -2.417,7.816 -2.417,12.135 v 0.171 c 0,4.321 0.791,8.366 2.375,12.139 1.583,3.769 3.801,7.053 6.65,9.844 2.849,2.793 6.233,5.011 10.148,6.651 3.915,1.645 8.209,2.464 12.874,2.464 4.664,0 8.967,-0.82 12.912,-2.464 3.943,-1.64 7.341,-3.887 10.191,-6.736 2.854,-2.849 5.081,-6.162 6.693,-9.934 1.616,-3.77 2.422,-7.817 2.422,-12.135 z m -99.076,12.352 v -0.175 c 0,-2.647 -0.42,-4.921 -1.256,-6.822 -0.834,-1.9 -2.085,-3.555 -3.726,-4.967 -1.644,-1.412 -3.673,-2.622 -6.062,-3.626 -2.389,-1.009 -5.124,-1.915 -8.191,-2.721 -2.592,-0.692 -4.736,-1.297 -6.45,-1.815 -1.698,-0.518 -3.039,-1.067 -4.03,-1.64 -0.981,-0.578 -1.654,-1.227 -2.029,-1.943 -0.375,-0.721 -0.563,-1.569 -0.563,-2.55 v -0.172 c 0,-1.497 0.648,-2.75 1.944,-3.758 1.297,-1.009 3.241,-1.512 5.83,-1.512 2.592,0 5.184,0.531 7.774,1.597 2.594,1.066 5.243,2.521 7.948,4.361 l 6.912,-10.016 c -3.11,-2.478 -6.522,-4.379 -10.238,-5.702 -3.713,-1.326 -7.788,-1.986 -12.221,-1.986 -3.11,0 -5.962,0.432 -8.538,1.294 -2.578,0.863 -4.809,2.1 -6.668,3.716 -1.854,1.612 -3.295,3.527 -4.331,5.741 -1.021,2.217 -1.541,4.711 -1.541,7.474 v 0.172 c 0,2.995 0.475,5.498 1.426,7.516 0.948,2.015 2.304,3.698 4.03,5.053 1.729,1.352 3.844,2.489 6.322,3.409 2.488,0.923 5.252,1.759 8.319,2.507 2.535,0.635 4.606,1.237 6.19,1.814 1.583,0.575 2.822,1.153 3.73,1.726 0.892,0.578 1.498,1.195 1.811,1.859 0.318,0.663 0.478,1.426 0.478,2.288 v 0.172 c 0,1.786 -0.763,3.18 -2.289,4.189 -1.526,1.01 -3.673,1.513 -6.436,1.513 -3.457,0 -6.637,-0.663 -9.544,-1.987 -2.91,-1.326 -5.745,-3.11 -8.507,-5.356 l -7.863,9.414 c 3.63,3.283 7.659,5.717 12.092,7.3 4.436,1.583 8.957,2.375 13.562,2.375 3.283,0 6.278,-0.417 8.972,-1.252 2.692,-0.834 5.024,-2.042 6.968,-3.626 1.942,-1.584 3.455,-3.545 4.545,-5.877 1.082,-2.331 1.63,-4.992 1.63,-7.987 z m -81.542,17.879 v -11.835 h -32.822 v -12.694 h 28.503 v -11.836 h -28.503 v -12.267 h 32.391 v -11.832 h -45.519 v 60.463 h 45.95 z m -81.709,-60.463 h -13.906 l -12.527,40.944 -13.562,-41.118 h -11.401 l -13.561,41.118 -12.527,-40.944 h -14.249 l 20.643,60.895 h 11.574 l 13.647,-39.56 13.646,39.56 h 11.576 z m -146.499,35.156 h -16.065 l 8.034,-19.609 z m 24.188,25.307 -25.914,-60.894 h -12.267 l -25.913,60.894 h 13.561 l 5.53,-13.561 h 25.569 l 5.527,13.561 z"
      id="path17"
    />
  </g>
  &#10;
</svg>
